<?xml version="1.0" encoding="utf-8"?>
<!-- Generator: Adobe Illustrator 16.0.3, SVG Export Plug-In . SVG Version: 6.00 Build 0)  -->
<!DOCTYPE svg PUBLIC "-//W3C//DTD SVG 1.1//EN" "http://www.w3.org/Graphics/SVG/1.1/DTD/svg11.dtd">
<svg version="1.1" id="Layer_1" xmlns="http://www.w3.org/2000/svg" xmlns:xlink="http://www.w3.org/1999/xlink" x="0px" y="0px"
	 width="107.512px" height="107.512px" viewBox="0 0 107.512 107.512" enable-background="new 0 0 107.512 107.512"
	 xml:space="preserve">
<g>
	<linearGradient id="SVGID_1_" gradientUnits="userSpaceOnUse" x1="100.0566" y1="35.4238" x2="9.1508" y2="75.8977">
		<stop  offset="0" style="stop-color:#92C740"/>
		<stop  offset="1" style="stop-color:#D1E180"/>
	</linearGradient>
	<path fill="url(#SVGID_1_)" d="M53.756,103.512C26.32,103.512,4,81.191,4,53.756c0-0.829,0.671-1.5,1.5-1.5s1.5,0.671,1.5,1.5
		c0,25.781,20.975,46.756,46.756,46.756s46.756-20.975,46.756-46.756S79.537,7,53.756,7c-0.829,0-1.5-0.671-1.5-1.5
		s0.671-1.5,1.5-1.5c27.436,0,49.756,22.32,49.756,49.756S81.191,103.512,53.756,103.512z"/>
	<path fill="#F3F4F4" d="M53.756,4c27.436,0,49.756,22.32,49.756,49.756s-22.32,49.756-49.756,49.756S4,81.191,4,53.756
		c0-0.829,0.671-1.5,1.5-1.5s1.5,0.671,1.5,1.5c0,25.781,20.975,46.756,46.756,46.756s46.756-20.975,46.756-46.756
		S79.537,7,53.756,7c-0.829,0-1.5-0.671-1.5-1.5S52.927,4,53.756,4 M53.756,0c-3.033,0-5.5,2.467-5.5,5.5s2.467,5.5,5.5,5.5
		c23.575,0,42.756,19.18,42.756,42.756c0,23.575-19.181,42.756-42.756,42.756C30.18,96.512,11,77.331,11,53.756
		c0-3.033-2.467-5.5-5.5-5.5S0,50.723,0,53.756c0,29.641,24.115,53.756,53.756,53.756c29.641,0,53.756-24.115,53.756-53.756
		C107.512,24.115,83.396,0,53.756,0L53.756,0z"/>
</g>
<g>
	<path fill="#8CBB29" d="M37.012,59.839h-1.029V48.656c0-1.015,0.042-2.069,0.126-3.161c-0.105,0.105-0.214,0.207-0.326,0.304
		c-0.112,0.098-1.193,0.949-3.245,2.552l-0.599-0.746l4.169-3.119h0.903V59.839z"/>
	<path fill="#8CBB29" d="M52.773,52.121c0,2.695-0.411,4.69-1.233,5.985c-0.823,1.295-2.067,1.942-3.733,1.942
		c-1.603,0-2.821-0.666-3.654-2s-1.25-3.31-1.25-5.928c0-2.674,0.404-4.655,1.213-5.943c0.809-1.288,2.039-1.932,3.691-1.932
		c1.617,0,2.849,0.667,3.696,2C52.35,47.58,52.773,49.538,52.773,52.121z M44.038,52.121c0,2.38,0.311,4.139,0.934,5.276
		s1.568,1.706,2.835,1.706c1.323,0,2.287-0.588,2.893-1.764s0.908-2.916,0.908-5.219c0-2.268-0.303-3.99-0.908-5.166
		c-0.605-1.176-1.57-1.764-2.893-1.764c-1.323,0-2.282,0.588-2.877,1.764C44.335,48.131,44.038,49.853,44.038,52.121z"/>
	<path fill="#8CBB29" d="M64.618,52.121c0,2.695-0.411,4.69-1.233,5.985s-2.066,1.942-3.732,1.942c-1.604,0-2.822-0.666-3.654-2
		c-0.834-1.334-1.25-3.31-1.25-5.928c0-2.674,0.404-4.655,1.213-5.943c0.809-1.288,2.039-1.932,3.691-1.932
		c1.616,0,2.849,0.667,3.695,2C64.195,47.58,64.618,49.538,64.618,52.121z M55.883,52.121c0,2.38,0.311,4.139,0.934,5.276
		s1.568,1.706,2.836,1.706c1.322,0,2.287-0.588,2.893-1.764s0.908-2.916,0.908-5.219c0-2.268-0.303-3.99-0.908-5.166
		c-0.605-1.176-1.57-1.764-2.893-1.764c-1.324,0-2.283,0.588-2.878,1.764C56.18,48.131,55.883,49.853,55.883,52.121z"/>
	<path fill="#8CBB29" d="M76.463,52.121c0,2.695-0.41,4.69-1.234,5.985c-0.822,1.295-2.066,1.942-3.732,1.942
		c-1.604,0-2.82-0.666-3.654-2c-0.832-1.334-1.249-3.31-1.249-5.928c0-2.674,0.404-4.655,1.213-5.943
		c0.808-1.288,2.038-1.932,3.69-1.932c1.617,0,2.85,0.667,3.697,2C76.039,47.58,76.463,49.538,76.463,52.121z M67.727,52.121
		c0,2.38,0.312,4.139,0.936,5.276c0.623,1.138,1.566,1.706,2.834,1.706c1.324,0,2.287-0.588,2.893-1.764s0.908-2.916,0.908-5.219
		c0-2.268-0.303-3.99-0.908-5.166c-0.605-1.176-1.568-1.764-2.893-1.764c-1.322,0-2.281,0.588-2.877,1.764
		C68.024,48.131,67.727,49.853,67.727,52.121z"/>
</g>
</svg>
