<?xml version="1.0" encoding="utf-8"?>
<!-- Generator: Adobe Illustrator 16.0.3, SVG Export Plug-In . SVG Version: 6.00 Build 0)  -->
<!DOCTYPE svg PUBLIC "-//W3C//DTD SVG 1.1//EN" "http://www.w3.org/Graphics/SVG/1.1/DTD/svg11.dtd">
<svg version="1.1" id="Layer_1" xmlns="http://www.w3.org/2000/svg" xmlns:xlink="http://www.w3.org/1999/xlink" x="0px" y="0px"
	 width="204.375px" height="48.959px" viewBox="0 0 204.375 48.959" enable-background="new 0 0 204.375 48.959"
	 xml:space="preserve">
<g>
	<defs>
		<rect id="SVGID_1_" width="204.375" height="48.959"/>
	</defs>
	<clipPath id="SVGID_2_">
		<use xlink:href="#SVGID_1_"  overflow="visible"/>
	</clipPath>
	<path clip-path="url(#SVGID_2_)" fill="#004F70" d="M179.229,33.013V19.124c0-2.688-1.093-5.648-4.279-5.648
		c-1.775,0-4.099,1.549-5.375,2.778v16.759h-3.688V11.928l3.688-0.774v2.96c2.049-1.867,4.51-2.869,7.288-2.869
		c4.188,0,6.054,3.096,6.054,6.967v14.801H179.229z"/>
	<path clip-path="url(#SVGID_2_)" fill="#004F70" d="M195.951,12.748c-3.326,0-5.056,3.734-5.193,6.603h9.384
		c0,0,0.046-0.728,0.046-0.819C200.188,15.798,199.14,12.748,195.951,12.748 M190.758,20.854c-0.046,0.638-0.091,1.32-0.091,1.958
		c0,5.374,2.278,8.38,7.787,8.38c1.504,0,3.051-0.183,4.556-0.455l-0.548,2.048c-1.958,0.411-4.008,0.685-5.966,0.685
		c-6.329,0-9.746-4.327-9.746-10.428c0-5.921,3.144-11.796,9.746-11.796c5.786,0,7.878,4.281,7.878,9.472v0.137H190.758z"/>
</g>
<rect x="54.419" y="42.913" fill="#004F70" width="1.029" height="5.919"/>
<polygon fill="#004F70" points="59.388,43.012 59.688,43.431 59.678,48.832 60.249,48.832 60.249,44.248 63.476,48.923 
	64.514,48.731 64.289,48.424 64.298,42.922 63.729,42.922 63.729,47.605 60.427,42.822 "/>
<g>
	<defs>
		<rect id="SVGID_3_" width="204.375" height="48.959"/>
	</defs>
	<clipPath id="SVGID_4_">
		<use xlink:href="#SVGID_3_"  overflow="visible"/>
	</clipPath>
	<path clip-path="url(#SVGID_4_)" fill="#004F70" d="M70.916,48.95c-0.421,0-0.842-0.082-1.234-0.209l-0.113-0.327
		c0.281,0.082,0.571,0.118,0.861,0.118c1.599,0,2.002-1.389,2.002-2.678c0-1.525-0.702-2.598-2.386-2.598h-0.598v5.575h-1.02
		l-0.009-5.92h1.029c2.189,0,4.153,0.218,4.153,2.842C73.601,47.389,72.806,48.95,70.916,48.95"/>
</g>
<rect x="77.234" y="42.913" fill="#004F70" width="1.029" height="5.919"/>
<polygon fill="#004F70" points="81.849,43.012 83.934,48.832 84.851,48.832 87.077,42.913 86.385,42.913 84.617,47.833 
	82.887,42.822 "/>
<rect x="90.513" y="42.913" fill="#004F70" width="1.03" height="5.919"/>
<g>
	<defs>
		<rect id="SVGID_5_" width="204.375" height="48.959"/>
	</defs>
	<clipPath id="SVGID_6_">
		<use xlink:href="#SVGID_5_"  overflow="visible"/>
	</clipPath>
	<path clip-path="url(#SVGID_6_)" fill="#004F70" d="M98.297,48.95c-0.421,0-0.842-0.082-1.234-0.209l-0.113-0.327
		c0.281,0.082,0.571,0.118,0.861,0.118c1.599,0,2.002-1.389,2.002-2.678c0-1.525-0.702-2.598-2.386-2.598H96.83v5.575h-1.02
		l-0.009-5.92h1.029c2.189,0,4.153,0.218,4.153,2.842C100.982,47.389,100.188,48.95,98.297,48.95"/>
	<path clip-path="url(#SVGID_6_)" fill="#004F70" d="M106.805,48.95c-1.497-0.009-2.265-0.663-2.265-2.134v-3.904h1.076l0.01,3.978
		c0,0.861,0.365,1.651,1.365,1.651c1.066,0,1.479-0.78,1.479-1.707l-0.01-3.922h0.646l0.01,3.941
		C109.115,48.287,108.218,48.95,106.805,48.95"/>
</g>
<polygon fill="#004F70" points="114.609,42.922 114.656,43.095 112.486,48.832 113.179,48.832 113.955,46.652 115.546,46.652 
	115.731,46.254 114.104,46.254 114.946,43.911 116.677,48.923 117.716,48.731 115.583,42.74 "/>
<polygon fill="#004F70" points="121.254,42.913 121.254,48.832 124.473,48.832 124.688,48.424 122.284,48.424 122.284,42.913 "/>
<g>
	<defs>
		<rect id="SVGID_7_" width="204.375" height="48.959"/>
	</defs>
	<clipPath id="SVGID_8_">
		<use xlink:href="#SVGID_7_"  overflow="visible"/>
	</clipPath>
	<path clip-path="url(#SVGID_8_)" fill="#004F70" d="M135.104,46.244c-0.29,0-0.589-0.055-0.86-0.153l-0.094-0.31
		c0.197,0.055,0.402,0.091,0.599,0.091c0.833,0.01,1.095-0.617,1.095-1.335c0.01-0.861-0.544-1.253-1.403-1.271l-0.43-0.009v5.574
		h-1.02v-5.92h1.253c2.161,0,2.713,0.473,2.731,1.616C136.993,45.627,136.198,46.244,135.104,46.244"/>
	<path clip-path="url(#SVGID_8_)" fill="#004F70" d="M143.807,48.932l-2.144-3.231c0.15,0.009,0.301,0.018,0.45,0.018
		c0.813,0,1.132-0.499,1.132-1.244c-0.01-0.835-0.468-1.188-1.31-1.208l-0.449-0.009l0.009,5.575h-1.028v-5.938l1.263,0.009
		c1.974,0.018,2.646,0.345,2.656,1.562c0.01,0.854-0.486,1.452-1.355,1.616l1.804,2.66L143.807,48.932z"/>
	<path clip-path="url(#SVGID_8_)" fill="#004F70" d="M150.76,43.167c-1.375-0.009-1.768,1.661-1.768,2.724
		c0,0.998,0.393,2.669,1.702,2.669c1.328,0,1.72-1.726,1.72-2.732C152.414,44.828,152.088,43.167,150.76,43.167 M150.638,48.959
		c-1.806,0-2.807-1.334-2.807-2.996c0-1.707,1.058-3.187,2.929-3.196c1.852,0,2.824,1.29,2.824,2.996
		C153.584,47.516,152.565,48.95,150.638,48.959"/>
	<path clip-path="url(#SVGID_8_)" fill="#004F70" d="M158.733,43.249h-0.487v2.287h0.571c0.729,0,1.225-0.436,1.225-1.153
		C160.033,43.585,159.397,43.249,158.733,43.249 M159.519,48.94c-0.355,0-0.711-0.082-1.038-0.199l-0.104-0.336
		c0.244,0.063,0.495,0.118,0.739,0.118c0.796,0.009,1.197-0.6,1.197-1.316c0.01-0.999-0.71-1.316-1.637-1.316h-0.431v2.941h-1.029
		v-5.929h1.591c1.058,0,2.329,0.091,2.329,1.353c0,0.781-0.617,1.308-1.385,1.416c0.898,0.109,1.712,0.536,1.712,1.508
		C161.474,48.324,160.642,48.94,159.519,48.94"/>
</g>
<rect x="165.088" y="42.913" fill="#004F70" width="1.029" height="5.919"/>
<g>
	<defs>
		<rect id="SVGID_9_" width="204.375" height="48.959"/>
	</defs>
	<clipPath id="SVGID_10_">
		<use xlink:href="#SVGID_9_"  overflow="visible"/>
	</clipPath>
	<path clip-path="url(#SVGID_10_)" fill="#004F70" d="M172.751,43.167c-1.375-0.009-1.768,1.661-1.768,2.724
		c0,0.998,0.393,2.669,1.702,2.669c1.328,0,1.72-1.726,1.72-2.732C174.405,44.828,174.079,43.167,172.751,43.167 M172.629,48.959
		c-1.806,0-2.807-1.334-2.807-2.996c0-1.707,1.058-3.187,2.929-3.196c1.852,0,2.825,1.29,2.825,2.996
		C175.576,47.516,174.557,48.95,172.629,48.959"/>
</g>
<polygon fill="#004F70" points="178.741,42.913 178.526,43.322 180.276,43.322 180.276,48.832 181.303,48.832 181.303,43.322 
	183.053,43.322 182.838,42.913 "/>
<rect x="186.527" y="42.913" fill="#004F70" width="1.028" height="5.919"/>
<g>
	<defs>
		<rect id="SVGID_11_" width="204.375" height="48.959"/>
	</defs>
	<clipPath id="SVGID_12_">
		<use xlink:href="#SVGID_11_"  overflow="visible"/>
	</clipPath>
	<path clip-path="url(#SVGID_12_)" fill="#004F70" d="M195.995,48.741c-0.495,0.136-1.01,0.209-1.524,0.209
		c-1.814,0-3.227-1.298-3.227-3.078c0-1.789,1.393-3.096,3.227-3.096c0.515,0,1.029,0.073,1.524,0.209l0.111,0.454
		c-0.363-0.082-0.758-0.137-1.132-0.137c-1.626,0-2.562,0.989-2.562,2.552c0,1.57,0.917,2.568,2.562,2.568
		c0.374,0,0.769-0.054,1.132-0.136L195.995,48.741z"/>
	<path clip-path="url(#SVGID_12_)" fill="#004F70" d="M200.816,48.94c-0.571,0-1.132-0.108-1.675-0.263l-0.121-0.481
		c0.485,0.137,0.99,0.2,1.496,0.2c0.627,0,1.432-0.227,1.432-0.972c0-1.353-2.788-1.462-2.788-3.005c0-1.126,0.88-1.644,1.945-1.644
		c0.506,0,1.021,0.081,1.486,0.264l0.113,0.48c-0.439-0.108-0.889-0.199-1.347-0.199c-0.57,0-1.188,0.317-1.188,0.935
		c0,0.999,2.777,1.19,2.777,2.933C202.948,48.369,201.92,48.94,200.816,48.94"/>
	<path clip-path="url(#SVGID_12_)" fill="#004F70" d="M86.226,15.183c-2.424-1.587-7.269-2.196-7.269,1.823v16.011h-3.688V17.92
		c0-5.786,6.037-6.854,8.107-6.854c2.071,0,4.324,0.764,4.324,0.764S86.847,13.657,86.226,15.183"/>
	<path clip-path="url(#SVGID_12_)" fill="#004F70" d="M97.5,12.707c-4.83,0-6.104,5.6-6.104,9.471c0,3.781,1.182,9.928,6.058,9.928
		c4.687,0,6.009-5.783,6.009-9.518C103.464,18.854,102.278,12.707,97.5,12.707 M97.317,33.518c-6.469,0-9.883-4.69-9.883-10.839
		c0-6.056,3.826-11.521,10.291-11.521c6.192,0,9.7,4.918,9.7,10.793C107.426,28.189,104.055,33.518,97.317,33.518"/>
	<path clip-path="url(#SVGID_12_)" fill="#004F70" d="M152.206,12.707c-4.83,0-6.104,5.6-6.104,9.471
		c0,3.781,1.182,9.928,6.058,9.928c4.688,0,6.01-5.783,6.01-9.518C158.169,18.854,156.983,12.707,152.206,12.707 M152.022,33.518
		c-6.469,0-9.883-4.69-9.883-10.839c0-6.056,3.826-11.521,10.291-11.521c6.192,0,9.7,4.918,9.7,10.793
		C162.131,28.189,158.76,33.518,152.022,33.518"/>
	<path clip-path="url(#SVGID_12_)" fill="#004F70" d="M120.188,33.472c-1.413,0-2.872-0.41-4.189-0.911l-0.457-1.958
		c1.096,0.364,2.231,0.638,3.37,0.638c5.238,0,7.015-4.417,7.015-8.972c0-3.552-1.048-8.789-5.555-8.789
		c-1.913,0-4.101,1.457-5.377,2.823v13.845c0,1.093-0.452,3.233-1.911,3.188c-1.002,0-2.232-0.41-3.234-0.591
		c1.547-0.639,1.458-2.643,1.458-4.054V0.774L114.995,0v14.072c1.822-1.64,4.691-2.914,7.197-2.914c5.646,0,7.65,5.373,7.65,10.201
		C129.843,27.37,126.972,33.472,120.188,33.472"/>
</g>
<polygon fill="#004F70" points="134.222,33.017 134.222,11.931 137.91,11.157 137.91,33.017 "/>
<g>
	<defs>
		<rect id="SVGID_13_" width="204.375" height="48.959"/>
	</defs>
	<clipPath id="SVGID_14_">
		<use xlink:href="#SVGID_13_"  overflow="visible"/>
	</clipPath>
	<path clip-path="url(#SVGID_14_)" fill="#94D400" d="M8.677,27.461c-0.058-0.014-0.091-0.009-0.143-0.018
		c-1.36-0.386-2.88-0.061-3.951,1.01c-1.575,1.574-1.575,4.127,0,5.702c1.575,1.574,4.128,1.574,5.702,0
		c0.9-0.899,1.267-2.117,1.139-3.291c0-0.034,0.012-0.054,0.004-0.098c-0.332-1.835-0.109-2.606,0.314-3.697
		C10.829,27.447,10.306,27.842,8.677,27.461"/>
	<path clip-path="url(#SVGID_14_)" fill="#94D400" d="M27.161,26.768c-0.02,0-0.032-0.007-0.058-0.002
		c-1.075,0.194-1.527,0.063-2.167-0.184c0.222,0.534,0.452,0.842,0.23,1.796c-0.008,0.034-0.006,0.054-0.01,0.084
		c-0.227,0.798-0.037,1.688,0.591,2.315c0.923,0.923,2.42,0.923,3.343,0s0.923-2.419,0-3.342
		C28.563,26.907,27.849,26.692,27.161,26.768"/>
	<path clip-path="url(#SVGID_14_)" fill="#94D400" d="M62.688,19.619c-1.51,0-4.685-0.704-5.255-0.888V6.458
		c0-1.925,2.649-3.555,4.567-3.555c4.563,0,6.76,2.819,6.76,8.134C68.76,15.788,67.161,19.619,62.688,19.619 M62.731,1.538
		c-4.805,0-9.306,2.553-9.306,6.328v9.755c-4.309-1.003-7.442-0.949-12.374,0.908c5.035-1.066,8.074-0.645,12.374,0.481v14.007
		h4.008V20.111c1.1,0.368,3.836,0.919,6.029,0.919c5.238,0,9.714-3.31,9.714-9.948C73.176,4.444,67.536,1.538,62.731,1.538"/>
	<path clip-path="url(#SVGID_14_)" fill="#94D400" d="M6.187,12.832c0.068,0.012,0.146,0.014,0.251-0.005
		c2.584-0.467,3.67-0.153,5.208,0.443c-0.534-1.287-1.087-2.024-0.553-4.318c0.027-0.113,0.043-0.212,0.056-0.305
		c0.497-1.89,0.029-3.981-1.453-5.462c-2.218-2.219-5.814-2.219-8.032,0c-2.218,2.218-2.218,5.814,0,8.032
		C2.902,12.456,4.569,12.977,6.187,12.832"/>
	<path clip-path="url(#SVGID_14_)" fill="#94D400" d="M32.616,6.45c-1.574-1.575-4.128-1.575-5.702,0
		c-0.9,0.9-1.267,2.117-1.139,3.291c0,0.035-0.012,0.054-0.004,0.098c0.332,1.834,0.109,2.606-0.314,3.697
		c0.913-0.379,1.436-0.772,3.065-0.392c0.058,0.014,0.091,0.009,0.143,0.017c1.36,0.386,2.88,0.062,3.951-1.009
		C34.191,10.578,34.191,8.025,32.616,6.45"/>
	<path clip-path="url(#SVGID_14_)" fill="#94D400" d="M24.958,24.459c0.012-0.027,0.012-0.04,0.022-0.064
		c0.756-1.177,1.2-2.574,1.2-4.076c0-1.365-0.367-2.642-1-3.747c-0.527-1.206-0.527-1.721-0.255-2.563
		c-0.856,0.355-1.658,0.106-2.848-0.408c-1.037-0.535-2.21-0.842-3.457-0.842c-1.026,0-2.003,0.206-2.895,0.576
		c-0.037,0.008-0.082,0.023-0.141,0.052c-1.748,0.852-2.277,0.901-3.267,0.581c0.378,0.913,0.073,1.759-0.512,3.087
		c-0.007,0.016-0.01,0.027-0.017,0.042c-0.462,0.978-0.728,2.067-0.728,3.222c0,1.281,0.321,2.487,0.884,3.545
		c0.603,1.33,0.614,1.851,0.33,2.731c0.819-0.34,1.587-0.127,2.696,0.343c1.082,0.599,2.325,0.941,3.65,0.941
		c1.609,0,3.097-0.507,4.323-1.364c0.862-0.403,1.176-0.421,1.715-0.247C24.437,25.734,24.615,25.239,24.958,24.459"/>
	<path clip-path="url(#SVGID_14_)" fill="#94D400" d="M138.381,4.3c0,1.266-1.026,2.292-2.292,2.292s-2.291-1.026-2.291-2.292
		s1.025-2.292,2.291-2.292S138.381,3.034,138.381,4.3"/>
</g>
</svg>
